<svg width="240" height="68" viewBox="0 0 240 68" fill="none" xmlns="http://www.w3.org/2000/svg">
<path d="M0.64 29L13.12 0.999998H19.52L32.04 29H25.24L15 4.28H17.56L7.28 29H0.64ZM6.88 23L8.6 18.08H23L24.76 23H6.88ZM41.345 29V0.999998H47.825V29H41.345ZM60.87 29V0.999998L72.99 0.999998C75.4967 0.999998 77.6567 1.41333 79.47 2.24C81.2833 3.04 82.6833 4.2 83.67 5.72C84.6567 7.24 85.15 9.05333 85.15 11.16C85.15 13.24 84.6567 15.04 83.67 16.56C82.6833 18.0533 81.2833 19.2 79.47 20C77.6567 20.8 75.4967 21.2 72.99 21.2H64.47L67.35 18.36V29H60.87ZM78.67 29L71.67 18.84H78.59L85.67 29H78.67ZM67.35 19.08L64.47 16.04H72.63C74.63 16.04 76.1233 15.6133 77.11 14.76C78.0967 13.88 78.59 12.68 78.59 11.16C78.59 9.61333 78.0967 8.41333 77.11 7.56C76.1233 6.70667 74.63 6.28 72.63 6.28H64.47L67.35 3.2V19.08ZM96.6841 29V0.999998H109.404C112.444 0.999998 115.124 1.58667 117.444 2.76C119.764 3.90667 121.577 5.52 122.884 7.6C124.191 9.68 124.844 12.1467 124.844 15C124.844 17.8267 124.191 20.2933 122.884 22.4C121.577 24.48 119.764 26.1067 117.444 27.28C115.124 28.4267 112.444 29 109.404 29H96.6841ZM103.164 23.68H109.084C110.951 23.68 112.564 23.3333 113.924 22.64C115.311 21.92 116.377 20.9067 117.124 19.6C117.897 18.2933 118.284 16.76 118.284 15C118.284 13.2133 117.897 11.68 117.124 10.4C116.377 9.09333 115.311 8.09333 113.924 7.4C112.564 6.68 110.951 6.32 109.084 6.32H103.164V23.68ZM136.131 29V0.999998H148.251C150.758 0.999998 152.918 1.41333 154.731 2.24C156.544 3.04 157.944 4.2 158.931 5.72C159.918 7.24 160.411 9.05333 160.411 11.16C160.411 13.24 159.918 15.04 158.931 16.56C157.944 18.0533 156.544 19.2 154.731 20C152.918 20.8 150.758 21.2 148.251 21.2H139.731L142.611 18.36V29H136.131ZM153.931 29L146.931 18.84H153.851L160.931 29H153.931ZM142.611 19.08L139.731 16.04H147.891C149.891 16.04 151.384 15.6133 152.371 14.76C153.358 13.88 153.851 12.68 153.851 11.16C153.851 9.61333 153.358 8.41333 152.371 7.56C151.384 6.70667 149.891 6.28 147.891 6.28H139.731L142.611 3.2V19.08ZM185.545 29.48C183.332 29.48 181.278 29.12 179.385 28.4C177.518 27.68 175.892 26.6667 174.505 25.36C173.145 24.0533 172.078 22.52 171.305 20.76C170.558 19 170.185 17.08 170.185 15C170.185 12.92 170.558 11 171.305 9.24C172.078 7.48 173.158 5.94667 174.545 4.64C175.932 3.33333 177.558 2.32 179.425 1.6C181.292 0.879999 183.318 0.52 185.505 0.52C187.718 0.52 189.745 0.879999 191.585 1.6C193.452 2.32 195.065 3.33333 196.425 4.64C197.812 5.94667 198.892 7.48 199.665 9.24C200.438 10.9733 200.825 12.8933 200.825 15C200.825 17.08 200.438 19.0133 199.665 20.8C198.892 22.56 197.812 24.0933 196.425 25.4C195.065 26.68 193.452 27.68 191.585 28.4C189.745 29.12 187.732 29.48 185.545 29.48ZM185.505 23.96C186.758 23.96 187.905 23.7467 188.945 23.32C190.012 22.8933 190.945 22.28 191.745 21.48C192.545 20.68 193.158 19.7333 193.585 18.64C194.038 17.5467 194.265 16.3333 194.265 15C194.265 13.6667 194.038 12.4533 193.585 11.36C193.158 10.2667 192.545 9.32 191.745 8.52C190.972 7.72 190.052 7.10666 188.985 6.68C187.918 6.25333 186.758 6.04 185.505 6.04C184.252 6.04 183.092 6.25333 182.025 6.68C180.985 7.10666 180.065 7.72 179.265 8.52C178.465 9.32 177.838 10.2667 177.385 11.36C176.958 12.4533 176.745 13.6667 176.745 15C176.745 16.3067 176.958 17.52 177.385 18.64C177.838 19.7333 178.452 20.68 179.225 21.48C180.025 22.28 180.958 22.8933 182.025 23.32C183.092 23.7467 184.252 23.96 185.505 23.96ZM212.095 29V0.999998H224.215C226.722 0.999998 228.882 1.41333 230.695 2.24C232.508 3.04 233.908 4.2 234.895 5.72C235.882 7.24 236.375 9.05333 236.375 11.16C236.375 13.24 235.882 15.04 234.895 16.56C233.908 18.08 232.508 19.2533 230.695 20.08C228.882 20.88 226.722 21.28 224.215 21.28H215.695L218.575 18.36V29H212.095ZM218.575 19.08L215.695 16H223.855C225.855 16 227.348 15.5733 228.335 14.72C229.322 13.8667 229.815 12.68 229.815 11.16C229.815 9.61333 229.322 8.41333 228.335 7.56C227.348 6.70667 225.855 6.28 223.855 6.28H215.695L218.575 3.2V19.08ZM0.64 67L13.12 39H19.52L32.04 67H25.24L15 42.28H17.56L7.28 67H0.64ZM6.88 61L8.6 56.08H23L24.76 61H6.88ZM41.345 67V39H47.825V67H41.345ZM60.87 67V39H72.99C75.4967 39 77.6567 39.4133 79.47 40.24C81.2833 41.04 82.6833 42.2 83.67 43.72C84.6567 45.24 85.15 47.0533 85.15 49.16C85.15 51.24 84.6567 53.04 83.67 54.56C82.6833 56.0533 81.2833 57.2 79.47 58C77.6567 58.8 75.4967 59.2 72.99 59.2H64.47L67.35 56.36V67H60.87ZM78.67 67L71.67 56.84H78.59L85.67 67H78.67ZM67.35 57.08L64.47 54.04H72.63C74.63 54.04 76.1233 53.6133 77.11 52.76C78.0967 51.88 78.59 50.68 78.59 49.16C78.59 47.6133 78.0967 46.4133 77.11 45.56C76.1233 44.7067 74.63 44.28 72.63 44.28H64.47L67.35 41.2V57.08ZM96.6841 67V39H103.164V61.72H117.204V67H96.6841ZM127.225 67V39H133.705V67H127.225ZM146.75 67V39H152.11L168.63 59.16H166.03V39H172.43V67H167.11L150.55 46.84H153.15V67H146.75ZM191.414 50.28H204.894V55.32H191.414V50.28ZM191.894 61.8H207.134V67H185.454V39H206.614V44.2H191.894V61.8ZM227.89 67.48C225.65 67.48 223.504 67.1867 221.45 66.6C219.397 65.9867 217.744 65.2 216.49 64.24L218.69 59.36C219.89 60.2133 221.304 60.92 222.93 61.48C224.584 62.0133 226.25 62.28 227.93 62.28C229.21 62.28 230.237 62.16 231.01 61.92C231.81 61.6533 232.397 61.2933 232.77 60.84C233.144 60.3867 233.33 59.8667 233.33 59.28C233.33 58.5333 233.037 57.9467 232.45 57.52C231.864 57.0667 231.09 56.7067 230.13 56.44C229.17 56.1467 228.104 55.88 226.93 55.64C225.784 55.3733 224.624 55.0533 223.45 54.68C222.304 54.3067 221.25 53.8267 220.29 53.24C219.33 52.6533 218.544 51.88 217.93 50.92C217.344 49.96 217.05 48.7333 217.05 47.24C217.05 45.64 217.477 44.1867 218.33 42.88C219.21 41.5467 220.517 40.4933 222.25 39.72C224.01 38.92 226.21 38.52 228.85 38.52C230.61 38.52 232.344 38.7333 234.05 39.16C235.757 39.56 237.264 40.1733 238.57 41L236.57 45.92C235.264 45.1733 233.957 44.6267 232.65 44.28C231.344 43.9067 230.064 43.72 228.81 43.72C227.557 43.72 226.53 43.8667 225.73 44.16C224.93 44.4533 224.357 44.84 224.01 45.32C223.664 45.7733 223.49 46.3067 223.49 46.92C223.49 47.64 223.784 48.2267 224.37 48.68C224.957 49.1067 225.73 49.4533 226.69 49.72C227.65 49.9867 228.704 50.2533 229.85 50.52C231.024 50.7867 232.184 51.0933 233.33 51.44C234.504 51.7867 235.57 52.2533 236.53 52.84C237.49 53.4267 238.264 54.2 238.85 55.16C239.464 56.12 239.77 57.3333 239.77 58.8C239.77 60.3733 239.33 61.8133 238.45 63.12C237.57 64.4267 236.25 65.48 234.49 66.28C232.757 67.08 230.557 67.48 227.89 67.48Z" fill="white"/>
</svg>
